<?xml version="1.0" encoding="UTF-8"?>
<svg xmlns="http://www.w3.org/2000/svg" xmlns:se="https://standardebooks.org/vocab/1.0" version="1.1" viewBox="0 0 1400 340" se:generated-from="c444b1169c0b723748cc086b4f95a511bf314a6d">
	<path d="M 321.3728,50.001206 C 308.92799,50.001206 296.20247,59.171066 296.20247,73.580846 296.20247,81.627866 301.62953,88.832756 310.89296,93.417686 320.06282,98.002616 328.29698,100.52901 328.29698,106.14321 328.29698,113.3481 320.99852,113.72238 317.16215,113.72238 308.55371,113.72238 298.26101,105.02037 298.26101,105.02037 L 289.46543,119.80443 C 289.46543,119.80443 300.41312,130.00356 318.47213,130.00356 333.5369,130.00356 347.5724,123.54723 347.5724,105.11394 347.5724,95.008376 338.12183,87.709916 329.51339,84.060686 320.71781,80.317886 313.41935,77.230076 313.41935,72.925856 313.41935,68.715206 316.60073,66.001676 322.58921,66.001676 330.54266,66.001676 338.2154,71.335166 338.2154,71.335166 L 345.32672,57.299666 C 345.32672,57.299666 335.4083,50.001206 321.3728,50.001206 Z"/>
	<path d="M 378.38602,97.628336 403.27564,97.628336 403.27564,128.60001 420.8668,128.60001 420.8668,51.404756 403.27564,51.404756 403.27564,82.189286 378.38602,82.189286 378.38602,51.404756 360.79486,51.404756 360.79486,128.60001 378.38602,128.60001 378.38602,97.628336 Z"/>
	<path d="M 433.6068,89.955596 C 433.6068,112.50597 449.70084,130.00356 472.53192,130.00356 494.70801,130.00356 511.36347,112.50597 511.36347,89.955596 511.36347,67.405226 493.95945,50.001206 472.53192,50.001206 451.29153,50.001206 433.6068,67.405226 433.6068,89.955596 Z M 452.60151,89.955596 C 452.60151,78.446486 458.96427,66.937376 472.53192,66.937376 486.19314,66.937376 492.36876,78.446486 492.36876,89.955596 492.36876,101.46471 486.56742,112.97382 472.53192,112.97382 458.12214,112.97382 452.60151,101.46471 452.60151,89.955596 Z"/>
	<path d="M 524.1254,51.404756 524.1254,128.60001 541.71656,128.60001 541.71656,98.096186 565.2962,128.60001 587.65943,128.60001 561.08555,96.692636 C 570.53612,93.698396 576.89888,85.932086 576.89888,74.329406 576.89888,59.171066 566.04476,51.404756 551.72855,51.404756 L 524.1254,51.404756 Z M 541.71656,85.651376 541.71656,65.440256 543.7751,65.440256 C 550.41857,65.440256 558.37202,65.908106 558.37202,75.545816 558.37202,85.183526 550.41857,85.651376 543.7751,85.651376 L 541.71656,85.651376 Z"/>
	<path d="M 587.67535,66.843806 606.01507,66.843806 606.01507,128.60001 623.60623,128.60001 623.60623,66.843806 641.94595,66.843806 641.94595,51.404756 587.67535,51.404756 587.67535,66.843806 Z"/>
	<path d="M 710.48422,50.001206 C 698.03941,50.001206 685.31389,59.171066 685.31389,73.580846 685.31389,81.627866 690.74095,88.832756 700.00438,93.417686 709.17424,98.002616 717.4084,100.52901 717.4084,106.14321 717.4084,113.3481 710.10994,113.72238 706.27357,113.72238 697.66513,113.72238 687.37243,105.02037 687.37243,105.02037 L 678.57685,119.80443 C 678.57685,119.80443 689.52454,130.00356 707.58355,130.00356 722.64832,130.00356 736.68382,123.54723 736.68382,105.11394 736.68382,95.008376 727.23325,87.709916 718.62481,84.060686 709.82923,80.317886 702.53077,77.230076 702.53077,72.925856 702.53077,68.715206 705.71215,66.001676 711.70063,66.001676 719.65408,66.001676 727.32682,71.335166 727.32682,71.335166 L 734.43814,57.299666 C 734.43814,57.299666 724.51972,50.001206 710.48422,50.001206 Z"/>
	<path d="M 740.47179,66.843806 758.81151,66.843806 758.81151,128.60001 776.40267,128.60001 776.40267,66.843806 794.74239,66.843806 794.74239,51.404756 740.47179,51.404756 740.47179,66.843806 Z"/>
	<path d="M 799.69123,89.955596 C 799.69123,112.50597 815.78527,130.00356 838.61635,130.00356 860.79244,130.00356 877.4479,112.50597 877.4479,89.955596 877.4479,67.405226 860.04388,50.001206 838.61635,50.001206 817.37596,50.001206 799.69123,67.405226 799.69123,89.955596 Z M 818.68594,89.955596 C 818.68594,78.446486 825.0487,66.937376 838.61635,66.937376 852.27757,66.937376 858.45319,78.446486 858.45319,89.955596 858.45319,101.46471 852.65185,112.97382 838.61635,112.97382 824.20657,112.97382 818.68594,101.46471 818.68594,89.955596 Z"/>
	<path d="M 890.20981,51.404756 890.20981,128.60001 907.80097,128.60001 907.80097,98.096186 931.38061,128.60001 953.74384,128.60001 927.16996,96.692636 C 936.62053,93.698396 942.98329,85.932086 942.98329,74.329406 942.98329,59.171066 932.12917,51.404756 917.81296,51.404756 L 890.20981,51.404756 Z M 907.80097,85.651376 907.80097,65.440256 909.85951,65.440256 C 916.50298,65.440256 924.45643,65.908106 924.45643,75.545816 924.45643,85.183526 916.50298,85.651376 909.85951,85.651376 L 907.80097,85.651376 Z"/>
	<path d="M 979.87165,51.404756 962.28049,51.404756 962.28049,128.60001 979.87165,128.60001 979.87165,51.404756 Z"/>
	<path d="M 1040.3206,51.404756 996.15561,51.404756 996.15561,128.60001 1040.3206,128.60001 1040.3206,113.16096 1013.7468,113.16096 1013.7468,97.628336 1039.1978,97.628336 1039.1978,82.189286 1013.7468,82.189286 1013.7468,66.843806 1040.3206,66.843806 1040.3206,51.404756 Z"/>
	<path d="M 1083.8788,50.001206 C 1071.434,50.001206 1058.7085,59.171066 1058.7085,73.580846 1058.7085,81.627866 1064.1356,88.832756 1073.399,93.417686 1082.5689,98.002616 1090.803,100.52901 1090.803,106.14321 1090.803,113.3481 1083.5046,113.72238 1079.6682,113.72238 1071.0598,113.72238 1060.7671,105.02037 1060.7671,105.02037 L 1051.9715,119.80443 C 1051.9715,119.80443 1062.9192,130.00356 1080.9782,130.00356 1096.0429,130.00356 1110.0784,123.54723 1110.0784,105.11394 1110.0784,95.008376 1100.6279,87.709916 1092.0194,84.060686 1083.2239,80.317886 1075.9254,77.230076 1075.9254,72.925856 1075.9254,68.715206 1079.1068,66.001676 1085.0953,66.001676 1093.0487,66.001676 1100.7214,71.335166 1100.7214,71.335166 L 1107.8328,57.299666 C 1107.8328,57.299666 1097.9143,50.001206 1083.8788,50.001206 Z"/>
	<path d="M 375.74403,231.05151 363.53271,231.05151 340.16277,288.95001 354.33913,288.95001 358.62011,277.37031 380.65663,277.37031 384.93761,288.95001 399.11397,288.95001 375.74403,231.05151 Z M 376.16511,265.79061 363.11163,265.79061 369.56819,248.94741 369.70855,248.94741 376.16511,265.79061 Z"/>
	<path d="M 419.49765,253.01785 419.63801,253.01785 442.65705,288.95001 455.85089,288.95001 455.85089,231.05151 442.65705,231.05151 442.65705,266.98367 442.51669,266.98367 419.49765,231.05151 406.30381,231.05151 406.30381,288.95001 419.49765,288.95001 419.49765,253.01785 Z"/>
	<path d="M 462.20843,242.63121 475.96371,242.63121 475.96371,288.95001 489.15755,288.95001 489.15755,242.63121 502.91283,242.63121 502.91283,231.05151 462.20843,231.05151 462.20843,242.63121 Z"/>
	<path d="M 507.87446,259.96567 C 507.87446,276.87905 519.94542,290.00271 537.06934,290.00271 553.702,290.00271 566.19404,276.87905 566.19404,259.96567 566.19404,243.05229 553.14056,229.99881 537.06934,229.99881 521.13848,229.99881 507.87446,243.05229 507.87446,259.96567 Z M 522.121,259.96567 C 522.121,251.33353 526.89324,242.70139 537.06934,242.70139 547.31562,242.70139 551.9475,251.33353 551.9475,259.96567 551.9475,268.59781 547.59634,277.22995 537.06934,277.22995 526.26162,277.22995 522.121,268.59781 522.121,259.96567 Z"/>
	<path d="M 590.20951,253.01785 590.34987,253.01785 613.36891,288.95001 626.56275,288.95001 626.56275,231.05151 613.36891,231.05151 613.36891,266.98367 613.22855,266.98367 590.20951,231.05151 577.01567,231.05151 577.01567,288.95001 590.20951,288.95001 590.20951,253.01785 Z"/>
	<path d="M 692.80217,277.01941 C 679.53815,277.01941 673.71321,267.75565 673.71321,259.96567 673.71321,252.24587 679.53815,242.98211 692.80217,242.98211 699.53945,242.98211 704.17133,246.56129 704.17133,246.56129 L 709.78573,235.33249 C 709.78573,235.33249 703.32917,229.99881 690.76695,229.99881 674.34483,229.99881 659.39649,243.47337 659.39649,260.10603 659.39649,276.66851 674.41501,290.00271 690.76695,290.00271 703.32917,290.00271 709.78573,284.66903 709.78573,284.66903 L 704.17133,273.44023 C 704.17133,273.44023 699.53945,277.01941 692.80217,277.01941 Z"/>
	<path d="M 733.09611,265.72043 751.76399,265.72043 751.76399,288.95001 764.95783,288.95001 764.95783,231.05151 751.76399,231.05151 751.76399,254.14073 733.09611,254.14073 733.09611,231.05151 719.90227,231.05151 719.90227,288.95001 733.09611,288.95001 733.09611,265.72043 Z"/>
	<path d="M 811.48466,231.05151 778.3597,231.05151 778.3597,288.95001 811.48466,288.95001 811.48466,277.37031 791.55354,277.37031 791.55354,265.72043 810.6425,265.72043 810.6425,254.14073 791.55354,254.14073 791.55354,242.63121 811.48466,242.63121 811.48466,231.05151 Z"/>
	<path d="M 876.77478,288.95001 849.82566,258.49189 873.12542,231.05151 857.12438,231.05151 837.26344,254.70217 837.26344,231.05151 824.0696,231.05151 824.0696,288.95001 837.26344,288.95001 837.26344,264.38701 858.59816,288.95001 876.77478,288.95001 Z"/>
	<path d="M 897.50279,265.72043 916.17067,265.72043 916.17067,288.95001 929.36451,288.95001 929.36451,231.05151 916.17067,231.05151 916.17067,254.14073 897.50279,254.14073 897.50279,231.05151 884.30895,231.05151 884.30895,288.95001 897.50279,288.95001 897.50279,265.72043 Z"/>
	<path d="M 940.16969,259.96567 C 940.16969,276.87905 952.24065,290.00271 969.36457,290.00271 985.99723,290.00271 998.48927,276.87905 998.48927,259.96567 998.48927,243.05229 985.43579,229.99881 969.36457,229.99881 953.43371,229.99881 940.16969,243.05229 940.16969,259.96567 Z M 954.41623,259.96567 C 954.41623,251.33353 959.18847,242.70139 969.36457,242.70139 979.61085,242.70139 984.24273,251.33353 984.24273,259.96567 984.24273,268.59781 979.89157,277.22995 969.36457,277.22995 958.55685,277.22995 954.41623,268.59781 954.41623,259.96567 Z"/>
	<path d="M 1025.2242,288.95001 1035.6109,288.95001 1059.8931,231.05151 1045.015,231.05151 1030.4175,269.08907 1015.8201,231.05151 1000.9419,231.05151 1025.2242,288.95001 Z"/>
</svg>
